<svg xmlns="http://www.w3.org/2000/svg" viewBox="0 0 64 64" width="64" height="64">
  <rect width="64" height="64" rx="14" fill="#25D366"/>
  <path fill="#fff" d="M32 12c-11 0-20 9-20 20 0 3.5 1 6.9 2.7 9.9L12 52l10.5-2.6c2.9 1.6 6.2 2.5 9.5 2.5 11 0 20-9 20-20s-9-20-20-20zm11.4 28.3c-.5 1.4-2.8 2.7-3.9 2.8-1.1.1-2.1.5-7-1.4-5.9-2.3-9.6-8.4-9.9-8.8-.3-.4-2.3-3.1-2.3-5.9 0-2.8 1.5-4.2 2-4.8.5-.6 1.1-.7 1.5-.7s.8 0 1.1.1c.4 0 .9-.1 1.4 1.1.5 1.2 1.7 4.2 1.8 4.5.1.3.2.6 0 1-.2.4-.3.6-.6 1-.3.3-.6.7-.9 1-.3.3-.6.6-.3 1.2.3.6 1.4 2.3 3 3.7 2.1 1.9 3.9 2.5 4.5 2.8.6.3.9.2 1.2-.1.3-.3 1.4-1.6 1.7-2.2.3-.6.7-.5 1.1-.3.5.2 2.9 1.4 3.4 1.6.5.2.8.4.9.6.2.2.2 1.4-.3 2.8z"/>
</svg>
